HIERARCHY
ROOT newVegas:Hips
{
	OFFSET 0.000000 96.479958 0.000000
	CHANNELS 6 Xposition Yposition Zposition Xrotation Yrotation Zrotation
	JOINT newVegas:Pelvis
	{
		OFFSET 0.000000 0.000000 0.000000
		CHANNELS 3 Xrotation Yrotation Zrotation
		JOINT newVegas:LeftUpLeg
		{
			OFFSET 18.735201 -5.666702 -4.541200
			CHANNELS 3 Xrotation Yrotation Zrotation
			JOINT newVegas:LeftLeg
			{
				OFFSET -0.021200 -31.938179 0.493100
				CHANNELS 3 Xrotation Yrotation Zrotation
				JOINT newVegas:LeftFoot
				{
					OFFSET 0.021200 -31.938179 -4.336299
					CHANNELS 3 Xrotation Yrotation Zrotation
					JOINT newVegas:LeftToeBase
					{
						OFFSET 0.943001 -26.722000 15.023500
						CHANNELS 3 Xrotation Yrotation Zrotation
						End Site
						{
							OFFSET 0.000000 30.670183 0.000000
						}
					}
				}
				JOINT newVegas:Left_PantLeg
				{
					OFFSET 0.663870 -9.044666 -1.108900
					CHANNELS 3 Xrotation Yrotation Zrotation
					End Site
					{
						OFFSET 1.415995 20.635357 0.000000
					}
				}
			}
		}
		JOINT newVegas:RightUpLeg
		{
			OFFSET -18.735201 -5.666702 -4.541200
			CHANNELS 3 Xrotation Yrotation Zrotation
			JOINT newVegas:RightLeg
			{
				OFFSET 0.018946 -31.938133 0.493100
				CHANNELS 3 Xrotation Yrotation Zrotation
				JOINT newVegas:RightFoot
				{
					OFFSET -0.018946 -31.938126 -4.336299
					CHANNELS 3 Xrotation Yrotation Zrotation
					JOINT newVegas:RightToeBase
					{
						OFFSET -0.943001 -26.722004 15.023500
						CHANNELS 3 Xrotation Yrotation Zrotation
						End Site
						{
							OFFSET 0.000000 30.670187 0.000000
						}
					}
				}
				JOINT newVegas:Right_PantLeg
				{
					OFFSET -0.661674 -9.044716 -1.108900
					CHANNELS 3 Xrotation Yrotation Zrotation
					End Site
					{
						OFFSET -1.415958 20.635269 0.000000
					}
				}
			}
		}
	}
	JOINT newVegas:Spine
	{
		OFFSET 0.000000 10.199997 -0.299500
		CHANNELS 3 Xrotation Yrotation Zrotation
		JOINT newVegas:Spine1
		{
			OFFSET 0.000000 11.900002 -1.516600
			CHANNELS 3 Xrotation Yrotation Zrotation
			JOINT newVegas:Spine2
			{
				OFFSET 0.000000 13.600006 -2.842500
				CHANNELS 3 Xrotation Yrotation Zrotation
				JOINT newVegas:Neck
				{
					OFFSET 0.000000 9.624100 -2.890100
					CHANNELS 3 Xrotation Yrotation Zrotation
					JOINT newVegas:Head
					{
						OFFSET 0.000000 14.068802 -1.351900
						CHANNELS 3 Xrotation Yrotation Zrotation
						JOINT newVegas:Hair_Back
						{
							OFFSET 0.000000 3.231903 -17.524799
							CHANNELS 3 Xrotation Yrotation Zrotation
							End Site
							{
								OFFSET 0.000000 19.849884 0.000000
							}
						}
						JOINT newVegas:Hair_Front
						{
							OFFSET 0.000000 31.260406 4.573800
							CHANNELS 3 Xrotation Yrotation Zrotation
							JOINT newVegas:Hair_Front1
							{
								OFFSET 0.000000 2.284103 11.993300
								CHANNELS 3 Xrotation Yrotation Zrotation
								JOINT newVegas:Hair_Front2
								{
									OFFSET 0.000000 2.284103 11.993300
									CHANNELS 3 Xrotation Yrotation Zrotation
									End Site
									{
										OFFSET 0.000000 12.208862 0.000000
									}
								}
							}
						}
						JOINT newVegas:Jowel
						{
							OFFSET 0.000000 -7.458206 6.864100
							CHANNELS 3 Xrotation Yrotation Zrotation
							End Site
							{
								OFFSET 0.000000 19.849884 0.000000
							}
						}
					}
				}
				JOINT newVegas:LeftShoulder
				{
					OFFSET 15.263000 10.923401 -0.547700
					CHANNELS 3 Xrotation Yrotation Zrotation
					JOINT newVegas:LeftArm
					{
						OFFSET 25.438599 -2.830597 -13.032500
						CHANNELS 3 Xrotation Yrotation Zrotation
						JOINT newVegas:LeftForeArm
						{
							OFFSET 29.960503 0.000000 0.000000
							CHANNELS 3 Xrotation Yrotation Zrotation
							JOINT newVegas:LeftHand
							{
								OFFSET 27.849251 0.000000 0.000000
								CHANNELS 3 Xrotation Yrotation Zrotation
								JOINT newVegas:LeftHandThumb1
								{
									OFFSET 4.487587 -3.305161 6.305391
									CHANNELS 3 Xrotation Yrotation Zrotation
									JOINT newVegas:LeftHandThumb2
									{
										OFFSET 5.480453 -3.164139 3.164143
										CHANNELS 3 Xrotation Yrotation Zrotation
										JOINT newVegas:LeftHandThumb3
										{
											OFFSET 5.159721 -2.978973 2.978967
											CHANNELS 3 Xrotation Yrotation Zrotation
											End Site
											{
												OFFSET 2.494507 5.926697 1.738678
											}
										}
									}
								}
								JOINT newVegas:LeftHandIndex1
								{
									OFFSET 18.578728 -0.527832 5.208049
									CHANNELS 3 Xrotation Yrotation Zrotation
									JOINT newVegas:LeftHandIndex2
									{
										OFFSET 3.192009 0.000000 0.000000
										CHANNELS 3 Xrotation Yrotation Zrotation
										JOINT newVegas:LeftHandIndex3
										{
											OFFSET 3.835129 0.000000 0.000000
											CHANNELS 3 Xrotation Yrotation Zrotation
											End Site
											{
												OFFSET -0.034599 3.816971 0.371180
											}
										}
									}
								}
								JOINT newVegas:LeftHandMiddle1
								{
									OFFSET 18.476105 0.000000 0.000000
									CHANNELS 3 Xrotation Yrotation Zrotation
									JOINT newVegas:LeftHandMiddle2
									{
										OFFSET 3.324875 0.000000 0.000000
										CHANNELS 3 Xrotation Yrotation Zrotation
										JOINT newVegas:LeftHandMiddle3
										{
											OFFSET 4.596550 0.000000 0.000000
											CHANNELS 3 Xrotation Yrotation Zrotation
											End Site
											{
												OFFSET 0.057701 4.578827 0.399218
											}
										}
									}
								}
								JOINT newVegas:LeftHandRing1
								{
									OFFSET 17.732719 0.121887 -4.201567
									CHANNELS 3 Xrotation Yrotation Zrotation
									JOINT newVegas:LeftHandRing2
									{
										OFFSET 2.733170 0.000000 0.000000
										CHANNELS 3 Xrotation Yrotation Zrotation
										JOINT newVegas:LeftHandRing3
										{
											OFFSET 3.178268 0.000000 0.000000
											CHANNELS 3 Xrotation Yrotation Zrotation
											End Site
											{
												OFFSET 0.119102 3.170624 0.185394
											}
										}
									}
								}
								JOINT newVegas:LeftHandPinky1
								{
									OFFSET 15.989624 -0.606689 -7.535461
									CHANNELS 3 Xrotation Yrotation Zrotation
									JOINT newVegas:LeftHandPinky2
									{
										OFFSET 2.538986 0.000000 0.000000
										CHANNELS 3 Xrotation Yrotation Zrotation
										JOINT newVegas:LeftHandPinky3
										{
											OFFSET 2.593102 0.000000 0.000000
											CHANNELS 3 Xrotation Yrotation Zrotation
											End Site
											{
												OFFSET -0.150902 2.584198 0.152708
											}
										}
									}
								}
							}
							JOINT newVegas:Left_Sleeve
							{
								OFFSET 0.267448 -0.649796 0.577675
								CHANNELS 3 Xrotation Yrotation Zrotation
								End Site
								{
									OFFSET 0.000000 15.991241 0.000000
								}
							}
							JOINT newVegas:Left_CapeC
							{
								OFFSET 15.715958 -8.608795 -6.935905
								CHANNELS 3 Xrotation Yrotation Zrotation
								JOINT newVegas:Left_CapeC1
								{
									OFFSET 0.000000 -8.688499 0.000000
									CHANNELS 3 Xrotation Yrotation Zrotation
									End Site
									{
										OFFSET 0.000000 8.688499 0.000000
									}
								}
							}
						}
						JOINT newVegas:Left_CapeB
						{
							OFFSET 26.118385 -8.608795 -7.079235
							CHANNELS 3 Xrotation Yrotation Zrotation
							JOINT newVegas:Left_CapeB1
							{
								OFFSET 0.000000 -8.688499 0.000000
								CHANNELS 3 Xrotation Yrotation Zrotation
								End Site
								{
									OFFSET 0.000000 8.688499 0.000000
								}
							}
						}
						JOINT newVegas:Left_CapeA
						{
							OFFSET 5.115639 -8.608795 -10.395809
							CHANNELS 3 Xrotation Yrotation Zrotation
							JOINT newVegas:Left_CapeA1
							{
								OFFSET 0.000000 -8.688499 0.000000
								CHANNELS 3 Xrotation Yrotation Zrotation
								End Site
								{
									OFFSET 0.000000 8.688499 0.000000
								}
							}
						}
					}
				}
				JOINT newVegas:RightShoulder
				{
					OFFSET -15.263000 10.923401 -0.547700
					CHANNELS 3 Xrotation Yrotation Zrotation
					JOINT newVegas:RightArm
					{
						OFFSET -25.438599 -2.830597 -13.032500
						CHANNELS 3 Xrotation Yrotation Zrotation
						JOINT newVegas:RightForeArm
						{
							OFFSET -29.960503 0.000000 0.000000
							CHANNELS 3 Xrotation Yrotation Zrotation
							JOINT newVegas:RightHand
							{
								OFFSET -27.849251 0.000000 0.000000
								CHANNELS 3 Xrotation Yrotation Zrotation
								JOINT newVegas:RightHandThumb1
								{
									OFFSET -4.487587 -3.305161 6.305391
									CHANNELS 3 Xrotation Yrotation Zrotation
									JOINT newVegas:RightHandThumb2
									{
										OFFSET -5.480453 -3.164139 3.164143
										CHANNELS 3 Xrotation Yrotation Zrotation
										JOINT newVegas:RightHandThumb3
										{
											OFFSET -5.159721 -2.978973 2.978967
											CHANNELS 3 Xrotation Yrotation Zrotation
											End Site
											{
												OFFSET -2.494507 5.926697 1.738678
											}
										}
									}
								}
								JOINT newVegas:RightHandIndex1
								{
									OFFSET -18.578728 -0.527832 5.208049
									CHANNELS 3 Xrotation Yrotation Zrotation
									JOINT newVegas:RightHandIndex2
									{
										OFFSET -3.192009 0.000000 0.000000
										CHANNELS 3 Xrotation Yrotation Zrotation
										JOINT newVegas:RightHandIndex3
										{
											OFFSET -3.835129 0.000000 0.000000
											CHANNELS 3 Xrotation Yrotation Zrotation
											End Site
											{
												OFFSET 0.034599 3.816971 0.371180
											}
										}
									}
								}
								JOINT newVegas:RightHandMiddle1
								{
									OFFSET -18.476105 0.000000 0.000000
									CHANNELS 3 Xrotation Yrotation Zrotation
									JOINT newVegas:RightHandMiddle2
									{
										OFFSET -3.324875 0.000000 0.000000
										CHANNELS 3 Xrotation Yrotation Zrotation
										JOINT newVegas:RightHandMiddle3
										{
											OFFSET -4.596550 0.000000 0.000000
											CHANNELS 3 Xrotation Yrotation Zrotation
											End Site
											{
												OFFSET -0.057701 4.578827 0.399218
											}
										}
									}
								}
								JOINT newVegas:RightHandRing1
								{
									OFFSET -17.732719 0.121887 -4.201567
									CHANNELS 3 Xrotation Yrotation Zrotation
									JOINT newVegas:RightHandRing2
									{
										OFFSET -2.733170 0.000000 0.000000
										CHANNELS 3 Xrotation Yrotation Zrotation
										JOINT newVegas:RightHandRing3
										{
											OFFSET -3.178268 0.000000 0.000000
											CHANNELS 3 Xrotation Yrotation Zrotation
											End Site
											{
												OFFSET -0.119102 3.170624 0.185394
											}
										}
									}
								}
								JOINT newVegas:RightHandPinky1
								{
									OFFSET -15.989624 -0.606689 -7.535461
									CHANNELS 3 Xrotation Yrotation Zrotation
									JOINT newVegas:RightHandPinky2
									{
										OFFSET -2.538986 0.000000 0.000000
										CHANNELS 3 Xrotation Yrotation Zrotation
										JOINT newVegas:RightHandPinky3
										{
											OFFSET -2.593102 0.000000 0.000000
											CHANNELS 3 Xrotation Yrotation Zrotation
											End Site
											{
												OFFSET 0.150902 2.584198 0.152708
											}
										}
									}
								}
							}
							JOINT newVegas:Right_CapeC
							{
								OFFSET -15.715958 -8.608795 -6.935905
								CHANNELS 3 Xrotation Yrotation Zrotation
								JOINT newVegas:Right_CapeC1
								{
									OFFSET 0.000000 -8.688499 0.000000
									CHANNELS 3 Xrotation Yrotation Zrotation
									End Site
									{
										OFFSET 0.000000 8.688499 0.000000
									}
								}
							}
							JOINT newVegas:Right_Sleeve
							{
								OFFSET -0.267448 -0.649994 0.577675
								CHANNELS 3 Xrotation Yrotation Zrotation
								End Site
								{
									OFFSET 0.000000 15.991302 0.000000
								}
							}
						}
						JOINT newVegas:Right_CapeA
						{
							OFFSET -5.115540 -8.608795 -10.395824
							CHANNELS 3 Xrotation Yrotation Zrotation
							JOINT newVegas:Right_CapeA1
							{
								OFFSET 0.000000 -8.688499 0.000000
								CHANNELS 3 Xrotation Yrotation Zrotation
								End Site
								{
									OFFSET 0.000000 8.688499 0.000000
								}
							}
						}
						JOINT newVegas:Right_CapeB
						{
							OFFSET -26.118187 -8.608795 -7.079266
							CHANNELS 3 Xrotation Yrotation Zrotation
							JOINT newVegas:Right_CapeB1
							{
								OFFSET 0.000000 -8.688499 0.000000
								CHANNELS 3 Xrotation Yrotation Zrotation
								End Site
								{
									OFFSET 0.000000 8.688499 0.000000
								}
							}
						}
					}
				}
				JOINT newVegas:Left_Collar
				{
					OFFSET 18.625099 8.655502 8.828100
					CHANNELS 3 Xrotation Yrotation Zrotation
					JOINT newVegas:Left_Collar1
					{
						OFFSET 14.783401 10.540405 -1.259500
						CHANNELS 3 Xrotation Yrotation Zrotation
						End Site
						{
							OFFSET 0.000000 18.199875 0.000000
						}
					}
				}
				JOINT newVegas:Collar_Back
				{
					OFFSET 0.000000 15.630707 -20.132601
					CHANNELS 3 Xrotation Yrotation Zrotation
					End Site
					{
						OFFSET 0.000000 22.523010 0.000000
					}
				}
				JOINT newVegas:Left_Peck
				{
					OFFSET 17.239599 -5.132599 25.482599
					CHANNELS 3 Xrotation Yrotation Zrotation
					End Site
					{
						OFFSET 0.000000 22.523010 0.000000
					}
				}
				JOINT newVegas:Right_Peck
				{
					OFFSET -17.239599 -5.132202 25.482599
					CHANNELS 3 Xrotation Yrotation Zrotation
					End Site
					{
						OFFSET 0.000000 22.523010 0.000000
					}
				}
				JOINT newVegas:Right_Collar
				{
					OFFSET -18.625099 8.655792 8.828100
					CHANNELS 3 Xrotation Yrotation Zrotation
					JOINT newVegas:Right_Collar1
					{
						OFFSET -14.783401 10.539993 -1.259500
						CHANNELS 3 Xrotation Yrotation Zrotation
						End Site
						{
							OFFSET 0.000000 18.199631 0.000000
						}
					}
				}
			}
		}
		JOINT newVegas:Belly
		{
			OFFSET 0.000000 -6.540398 9.014299
			CHANNELS 3 Xrotation Yrotation Zrotation
			End Site
			{
				OFFSET 0.000000 11.566666 0.000000
			}
		}
	}
	JOINT newVegas:ElvisFacialAnim_Joint
	{
		OFFSET 1.000000 -95.330101 -8.825800
		CHANNELS 3 Xrotation Yrotation Zrotation
		End Site
		{
			OFFSET 0.000000 35.315800 0.000000
		}
	}
}
MOTION
Frames: 4
Frame Time: 0.033333
-82.194237 17.635963 67.467377 74.681780 -23.535464 48.865458 -0.000002 0.000000 -0.000001 -3.363867 9.754766 22.932582 46.479068 4.955008 -1.791933 32.238961 -3.552470 -23.957800 0.000001 0.000000 -0.000000 -0.000000 0.000000 -0.000001 -14.189213 -2.073830 -25.091858 55.600506 4.588222 -4.999561 32.143748 9.000037 23.423207 -0.000000 0.000003 0.000001 -0.000001 -0.000001 0.000001 -10.059593 -3.831473 1.853380 -2.445455 -0.937196 0.576857 -2.449203 -0.943602 0.582226 -3.180971 -3.138441 2.043094 -3.181005 -3.138445 2.043097 0.000003 0.000000 -0.000002 -3.180991 -3.138418 2.043089 -3.180986 -3.138441 2.043096 -0.000001 0.000000 -0.000000 0.000003 0.000000 -0.000000 1.827598 -13.324013 4.501165 17.097212 -2.098751 -82.801557 -0.000007 -12.250728 -0.000003 31.334773 -0.104576 -27.436151 -5.590459 8.305548 7.522494 3.939051 7.948705 0.746803 -0.000000 -0.000000 -0.000001 1.116402 3.763759 -33.032431 1.116404 3.763754 -33.032434 -0.000001 0.000001 -0.000001 1.115356 3.762134 -33.016366 1.117469 3.765349 -33.048488 0.000003 -0.000001 0.000000 1.116406 3.763735 -33.032431 1.116410 3.763751 -33.032434 0.000000 0.000003 -0.000004 3.327296 7.168914 -32.732742 1.129424 -0.299818 -33.463197 0.000001 -0.000005 0.000004 0.000001 0.000004 -0.000000 0.000001 0.000004 -0.000000 0.000001 0.000004 0.000000 0.000000 0.000004 -0.000001 0.000001 0.000003 -0.000000 0.000000 0.000004 -0.000001 0.000000 0.000004 -0.000002 -0.242951 -4.838743 -1.784747 2.556054 -5.031356 74.035699 0.000007 3.550180 0.000011 44.694548 -0.371952 12.794053 -10.290504 -9.238800 -7.953609 4.637193 -8.634144 -0.225403 0.000001 -0.000002 0.000003 1.068611 -3.708973 32.135497 1.068621 -3.708970 32.135518 -0.000002 0.000001 -0.000000 1.068605 -3.708963 32.135494 1.068632 -3.708963 32.135514 -0.000002 0.000000 0.000001 1.068613 -3.708954 32.135507 1.068620 -3.708971 32.135500 0.000001 -0.000001 0.000000 1.068614 -3.708969 32.135507 1.068625 -3.708962 32.135507 -0.000002 0.000002 -0.000003 -0.000002 -0.000002 -0.000000 -0.000002 -0.000000 0.000000 -0.000002 -0.000002 -0.000000 0.000000 0.000001 -0.000002 0.000000 0.000001 -0.000001 0.000000 0.000001 -0.000002 0.000001 0.000001 -0.000000 0.000002 -0.000001 -0.000001 0.000002 -0.000001 -0.000001 0.000002 -0.000001 -0.000001 0.000002 -0.000001 -0.000001 0.000002 -0.000001 -0.000001 0.000002 -0.000001 -0.000001 0.000002 -0.000001 -0.000001 -0.000002 0.000001 -0.000002 -0.000002 0.000000 -0.000001 
-84.361359 14.757042 69.661308 79.258881 -18.568928 50.032331 -0.000000 0.000000 0.000002 -3.206544 11.016184 23.119799 42.530659 5.983118 -2.584583 33.468514 -4.282528 -24.135454 0.000001 0.000003 -0.000001 0.000002 0.000000 0.000003 -14.279479 -3.928845 -25.475212 51.731556 4.598812 -4.492597 32.174999 8.709048 22.689629 -0.000000 -0.000002 -0.000003 0.000003 -0.000001 -0.000005 -10.740517 -4.356941 2.098704 -2.636280 -1.044098 0.626846 -2.638821 -1.052351 0.631470 -3.621216 -3.536207 2.347916 -3.621207 -3.536196 2.347913 -0.000000 -0.000002 0.000001 -3.621209 -3.536212 2.347917 -3.621228 -3.536213 2.347921 0.000000 0.000000 -0.000001 -0.000000 -0.000002 0.000001 2.061739 -15.019181 4.681692 18.468010 -3.072113 -84.505689 -0.000003 -10.201293 0.000001 37.163937 2.091928 -30.117555 -5.590461 8.305557 7.522505 3.939039 7.948709 0.746811 0.000003 0.000001 -0.000001 1.104657 3.745684 -32.853090 1.104658 3.745651 -32.853097 -0.000002 0.000001 -0.000002 1.103612 3.744044 -32.837050 1.105710 3.747271 -32.869152 0.000001 0.000000 -0.000001 1.104662 3.745666 -32.853097 1.104670 3.745654 -32.853111 -0.000001 0.000001 -0.000000 3.304737 7.157754 -32.551814 1.117575 -0.317820 -33.284714 -0.000001 -0.000005 0.000001 0.000000 0.000002 0.000002 0.000000 0.000002 0.000002 0.000000 0.000002 0.000003 0.000001 0.000001 0.000002 0.000001 0.000000 0.000003 0.000001 0.000001 0.000002 0.000001 0.000001 0.000002 -0.193556 -4.463970 -1.619034 3.592748 -3.601126 74.098892 -0.000015 3.830880 -0.000006 49.789945 0.320687 13.323916 -10.290522 -9.238820 -7.953601 4.637208 -8.634136 -0.225397 -0.000001 -0.000004 -0.000004 1.077163 -3.722523 32.267460 1.077185 -3.722508 32.267463 -0.000003 0.000002 -0.000003 1.077172 -3.722510 32.267463 1.077167 -3.722504 32.267460 -0.000004 0.000000 0.000001 1.077169 -3.722508 32.267463 1.077179 -3.722514 32.267460 -0.000003 -0.000001 -0.000001 1.077174 -3.722534 32.267473 1.077150 -3.722500 32.267467 0.000004 -0.000002 0.000001 -0.000001 0.000002 0.000003 -0.000001 -0.000001 0.000002 -0.000001 0.000002 0.000003 -0.000002 0.000001 0.000001 -0.000003 0.000002 -0.000000 -0.000002 0.000001 0.000001 -0.000002 0.000002 0.000001 -0.000001 0.000000 0.000000 -0.000001 0.000000 0.000000 -0.000001 0.000000 0.000000 -0.000001 0.000000 0.000000 -0.000001 0.000000 0.000000 -0.000001 0.000000 0.000000 -0.000001 0.000000 0.000000 -0.000001 0.000001 -0.000004 -0.000000 0.000000 0.000002 
-86.646729 11.803398 71.838760 84.079321 -13.115409 50.907589 -0.000000 -0.000000 -0.000001 -3.089399 12.006782 23.097533 38.527291 6.953523 -3.163274 34.493466 -3.695958 -24.966361 -0.000000 0.000003 -0.000003 -0.000001 -0.000003 0.000001 -14.607915 -5.850069 -25.818028 47.366822 4.864669 -3.663583 32.349856 7.621158 21.965059 -0.000001 0.000001 -0.000001 0.000000 -0.000002 -0.000001 -11.447876 -4.415305 2.189786 -2.832059 -1.046222 0.639384 -2.833482 -1.053426 0.643480 -4.122674 -3.933433 2.622208 -4.122665 -3.933433 2.622195 -0.000002 0.000000 -0.000001 -4.122687 -3.933442 2.622198 -4.122643 -3.933417 2.622202 -0.000000 -0.000001 -0.000001 -0.000002 0.000000 0.000000 2.024519 -14.779116 4.619939 18.676193 -3.340335 -85.755566 -0.000027 -7.871835 0.000002 45.796152 4.684647 -31.084078 -5.590471 8.305552 7.522496 3.939047 7.948713 0.746814 0.000002 0.000000 0.000001 1.033574 3.633470 -31.748543 1.033575 3.633459 -31.748543 -0.000003 0.000001 -0.000001 1.032562 3.631803 -31.732519 1.034583 3.635103 -31.764594 -0.000005 0.000002 -0.000001 1.033579 3.633446 -31.748546 1.033581 3.633454 -31.748550 -0.000000 0.000001 -0.000000 3.166563 7.087292 -31.437510 1.045795 -0.429467 -32.185176 0.000001 -0.000003 -0.000001 0.000001 -0.000002 -0.000000 0.000001 -0.000002 -0.000000 0.000001 -0.000002 0.000000 -0.000000 0.000003 -0.000001 -0.000000 0.000002 -0.000001 -0.000000 0.000003 -0.000001 -0.000001 0.000002 -0.000001 -0.128194 -3.918585 -1.441094 4.218143 -1.930548 73.877457 -0.000016 4.278130 -0.000014 55.978526 -1.046012 14.116860 -10.290491 -9.238801 -7.953596 4.637206 -8.634117 -0.225399 -0.000001 -0.000000 -0.000002 1.032179 -3.650447 31.567751 1.032185 -3.650424 31.567751 0.000000 -0.000002 0.000001 1.032184 -3.650430 31.567758 1.032180 -3.650426 31.567755 -0.000005 0.000001 0.000000 1.032181 -3.650428 31.567758 1.032181 -3.650435 31.567755 -0.000003 -0.000001 -0.000001 1.032177 -3.650449 31.567755 1.032178 -3.650424 31.567758 0.000001 0.000005 -0.000001 -0.000001 -0.000000 -0.000002 -0.000001 0.000000 0.000000 -0.000001 -0.000000 -0.000001 0.000002 0.000002 0.000003 0.000002 0.000002 0.000003 0.000002 0.000002 0.000003 0.000002 0.000002 0.000004 0.000000 0.000001 0.000001 0.000000 0.000001 0.000001 0.000000 0.000001 0.000001 0.000000 0.000001 0.000001 0.000000 0.000001 0.000001 0.000000 0.000001 0.000001 0.000000 0.000001 0.000001 -0.000000 -0.000002 0.000002 -0.000000 -0.000000 -0.000001 
-88.919052 9.385002 73.708038 89.857347 -7.234314 51.822732 -0.000000 0.000000 -0.000001 -3.738096 12.292875 22.384268 34.886359 7.175485 -3.905109 34.822306 -1.133394 -25.576653 -0.000000 -0.000000 -0.000001 0.000004 0.000000 0.000002 -15.979639 -6.825314 -26.966796 43.186456 3.787653 -2.354506 32.286437 6.097128 23.743237 0.000001 0.000001 0.000003 0.000002 -0.000001 0.000003 -11.848853 -3.885675 2.109991 -2.925593 -0.917021 0.604465 -2.926436 -0.920706 0.610873 -4.473251 -4.299187 2.739904 -4.473246 -4.299193 2.739931 0.000000 0.000001 -0.000001 -4.473227 -4.299149 2.739908 -4.473286 -4.299235 2.739906 0.000000 -0.000001 -0.000000 0.000000 0.000001 -0.000000 2.065135 -15.043748 4.683803 17.614802 -2.210275 -86.495091 0.000013 -5.428096 -0.000003 50.218597 6.085579 -27.496108 -5.590463 8.305556 7.522497 3.939043 7.948713 0.746820 -0.000000 0.000000 -0.000006 0.910720 3.427368 -29.753592 0.910720 3.427352 -29.753571 -0.000001 0.000002 -0.000001 0.909758 3.425675 -29.737561 0.911673 3.429023 -29.769605 -0.000001 -0.000000 -0.000001 0.910721 3.427348 -29.753588 0.910725 3.427352 -29.753585 -0.000003 -0.000001 0.000001 2.920576 6.953290 -29.425090 0.921577 -0.634625 -30.198951 0.000000 0.000002 0.000000 0.000002 0.000001 0.000001 0.000002 0.000001 0.000001 0.000001 0.000002 0.000001 -0.000001 -0.000001 -0.000001 -0.000001 -0.000002 -0.000001 -0.000001 -0.000001 -0.000001 -0.000001 -0.000002 -0.000002 0.060437 -2.277299 -0.856627 3.074302 0.017787 73.521379 -0.000010 4.533907 -0.000001 62.076085 -5.150327 16.463526 -10.290516 -9.238805 -7.953588 4.637202 -8.634134 -0.225412 -0.000000 -0.000003 -0.000004 0.930346 -3.479593 29.930179 0.930350 -3.479588 29.930189 -0.000003 -0.000001 -0.000001 0.930349 -3.479577 29.930186 0.930341 -3.479595 29.930183 -0.000001 -0.000000 0.000001 0.930349 -3.479571 29.930183 0.930354 -3.479596 29.930186 -0.000001 0.000001 -0.000000 0.930347 -3.479598 29.930183 0.930352 -3.479585 29.930183 0.000001 -0.000000 0.000000 -0.000000 -0.000001 -0.000001 -0.000001 -0.000001 0.000003 -0.000000 0.000000 0.000002 0.000000 0.000001 0.000001 -0.000000 0.000002 -0.000000 0.000000 0.000001 0.000001 0.000000 0.000002 0.000002 0.000002 -0.000000 -0.000000 0.000002 -0.000000 -0.000000 0.000002 -0.000000 -0.000000 0.000002 -0.000000 -0.000000 0.000002 -0.000000 -0.000000 0.000002 -0.000000 -0.000000 0.000002 -0.000000 -0.000000 -0.000000 0.000001 -0.000001 -0.000000 0.000000 -0.000001 
